# xmcd
#
# Track frame offsets:
#	150
#	23561
#	36009
#	50087
#	72971
#	87768
#	106873
#	125237
#	142579
#	161276
#	178437
#	192463
#	207078
#	212101
#	236156
#
# Disc length: 3318 seconds
#
# Revision: 0
# Processed by: cddbd v1.5.2PL0 Copyright (c) Steve Scherf et al.
# Submitted via: audiograbber 1.83.01
#
DISCID=d40cf40f
DTITLE=Cholomandinga - Porque Chile Es Porno
DYEAR=2003
DGENRE=Funk
TTITLE0=El Opio Del Pueblo
TTITLE1=Kapitan Kana
TTITLE2=El Partío
TTITLE3=Prohibido Fumar
TTITLE4=Kalipso
TTITLE5=Chile
TTITLE6=Exótika
TTITLE7=Pepe Korneta
TTITLE8=Narigón
TTITLE9=Komandante Nº8
TTITLE10=Pa' Bacilar
TTITLE11=Veneno
TTITLE12=La Cuchilla
TTITLE13=El Opio Del Pueblo
TTITLE14=Narigón
EXTD=http://www.selloazul.cl/
EXTT0=
EXTT1=
EXTT2=
EXTT3=
EXTT4=
EXTT5=
EXTT6=
EXTT7=
EXTT8=
EXTT9=
EXTT10=
EXTT11=
EXTT12=
EXTT13=
EXTT14=
PLAYORDER=
